<?xml version="1.0" encoding="utf-8"?>
<!-- Generator: Adobe Illustrator 19.1.0, SVG Export Plug-In . SVG Version: 6.00 Build 0)  -->
<svg version="1.1" id="Layer_1" xmlns="http://www.w3.org/2000/svg" xmlns:xlink="http://www.w3.org/1999/xlink" x="0px" y="0px"
	 viewBox="0 0 91 79" style="enable-background:new 0 0 91 79;" xml:space="preserve">
<style type="text/css">
	.st0{fill:none;stroke:#77777C;}
	.st1{fill:none;stroke:#77777C;stroke-dasharray:1;}
	.st2{fill:#77777C;}
	.st3{fill:#EA3D29;}
</style>
<g id="XMLID_37_">
	<g id="XMLID_70_">
		<g id="XMLID_127_">
			<line id="XMLID_139_" class="st0" x1="24.5" y1="78.7" x2="24.5" y2="78.7"/>
			<line id="XMLID_138_" class="st1" x1="23.5" y1="77" x2="2.5" y2="40.5"/>
			<line id="XMLID_137_" class="st0" x1="2" y1="39.7" x2="2" y2="39.7"/>
			<line id="XMLID_136_" class="st1" x1="2.9" y1="38" x2="24" y2="1.6"/>
			<line id="XMLID_135_" class="st0" x1="24.5" y1="0.7" x2="24.5" y2="0.7"/>
			<line id="XMLID_134_" class="st1" x1="26.4" y1="0.7" x2="68.5" y2="0.7"/>
			<line id="XMLID_133_" class="st0" x1="69.5" y1="0.7" x2="69.5" y2="0.7"/>
			<line id="XMLID_132_" class="st1" x1="70.5" y1="2.4" x2="91.5" y2="38.8"/>
			<line id="XMLID_131_" class="st0" x1="92" y1="39.7" x2="92" y2="39.7"/>
			<line id="XMLID_130_" class="st1" x1="91" y1="41.4" x2="70" y2="77.8"/>
			<line id="XMLID_129_" class="st0" x1="69.5" y1="78.7" x2="69.5" y2="78.7"/>
			<line id="XMLID_128_" class="st1" x1="67.5" y1="78.7" x2="25.5" y2="78.7"/>
		</g>
	</g>
	<g id="XMLID_42_">
		<path id="XMLID_35_" class="st2" d="M66,36c-0.1-0.3-0.3-0.4-0.6-0.4c-0.2,0-0.3,0.1-0.4,0.2l-1.5,1.5c-0.1,0.1-0.2,0.3-0.2,0.5
			c0.1,0.9,0.2,1.8,0.2,2.7c0,9.1-7.4,16.5-16.6,16.5c-8.3,0-15.3-6.3-16.3-14.4c-0.6-4.9,0.9-9.5,4.1-13.2c3-3.4,7.3-5.3,11.8-5.4
			l1.3,0v2.5c0,0.2,0.1,0.3,0.2,0.4c0.1,0.1,0.3,0.2,0.4,0.2c0.2,0,0.3-0.1,0.4-0.2l3.9-3.9c0.1-0.1,0.2-0.3,0.2-0.4
			s-0.1-0.3-0.2-0.4l-3.9-3.9C48.7,18,48.6,18,48.4,18c-0.3,0-0.6,0.3-0.6,0.6v2.4l-1.2,0c-5.3,0.1-10.5,2.4-14.1,6.4
			c-3.6,4-5.4,9.2-5,14.7c0.8,9.5,8.5,17.1,17.9,17.8c0.5,0,1,0.1,1.5,0.1c5.2,0,10.1-2,13.8-5.7c3.7-3.7,5.7-8.6,5.7-13.8
			C66.5,39,66.3,37.5,66,36z"/>
		<path id="XMLID_38_" class="st3" d="M36.3,39l1.4-1.4c0.3-0.3,0.7-0.3,1,0l5.4,5.4l17.5-17.5c0.3-0.3,0.7-0.3,1,0l1.4,1.4
			c0.3,0.3,0.3,0.7,0,1L46.4,45.7l-1.7,1.7c-0.3,0.3-0.7,0.3-1,0L36.3,40C36.1,39.7,36.1,39.3,36.3,39z"/>
	</g>
</g>
</svg>
