<?xml version="1.0" encoding="utf-8"?>
<!-- Generator: Adobe Illustrator 19.1.0, SVG Export Plug-In . SVG Version: 6.00 Build 0)  -->
<svg version="1.1" id="Layer_1" xmlns="http://www.w3.org/2000/svg" xmlns:xlink="http://www.w3.org/1999/xlink" x="0px" y="0px"
	 viewBox="0 0 91 79" style="enable-background:new 0 0 91 79;" xml:space="preserve">
<style type="text/css">
	.st0{fill:#77777C;}
	.st1{fill:#EA3D29;}
	.st2{fill:none;stroke:#77777C;}
	.st3{fill:none;stroke:#77777C;stroke-dasharray:1;}
</style>
<g id="XMLID_24_">
	<path id="XMLID_254_" class="st0" d="M53.2,49.7c-2,1.4-4.4,2.2-7.1,2.1c-6.4-0.1-11.7-5.3-11.9-11.7c-0.3-6.9,5.3-12.6,12.1-12.6
		c6.7,0,12.1,5.4,12.1,12.1h3c0-8.6-7.2-15.5-15.8-15.1C38,25,31.6,31.3,31.3,39c-0.4,8.7,6.5,15.8,15.1,15.8c3.5,0,6.8-1.2,9.4-3.3
		c0.5-0.4,0.3-1.1-0.2-1.3c-0.5-0.2-1.1-0.4-1.5-0.7C53.7,49.5,53.5,49.6,53.2,49.7z"/>
	<path id="XMLID_227_" class="st1" d="M59.2,33.4c-3.5,0-6.3,2.8-6.3,6.3c0,3.5,2.8,6.3,6.3,6.3c3.5,0,6.3-2.8,6.3-6.3
		C65.4,36.2,62.6,33.4,59.2,33.4L59.2,33.4z"/>
	<g id="XMLID_72_">
		<g id="XMLID_240_">
			<line id="XMLID_266_" class="st2" x1="23.7" y1="78.7" x2="23.7" y2="78.7"/>
			<line id="XMLID_258_" class="st3" x1="22.7" y1="77" x2="1.7" y2="40.5"/>
			<line id="XMLID_256_" class="st2" x1="1.2" y1="39.7" x2="1.2" y2="39.7"/>
			<line id="XMLID_255_" class="st3" x1="2.1" y1="38" x2="23.2" y2="1.6"/>
			<line id="XMLID_253_" class="st2" x1="23.7" y1="0.7" x2="23.7" y2="0.7"/>
			<line id="XMLID_252_" class="st3" x1="25.6" y1="0.7" x2="67.7" y2="0.7"/>
			<line id="XMLID_251_" class="st2" x1="68.7" y1="0.7" x2="68.7" y2="0.7"/>
			<line id="XMLID_249_" class="st3" x1="69.7" y1="2.4" x2="90.7" y2="38.8"/>
			<line id="XMLID_248_" class="st2" x1="91.2" y1="39.7" x2="91.2" y2="39.7"/>
			<line id="XMLID_246_" class="st3" x1="90.2" y1="41.4" x2="69.2" y2="77.8"/>
			<line id="XMLID_245_" class="st2" x1="68.7" y1="78.7" x2="68.7" y2="78.7"/>
			<line id="XMLID_244_" class="st3" x1="66.7" y1="78.7" x2="24.7" y2="78.7"/>
		</g>
	</g>
</g>
</svg>
