<?xml version="1.0" encoding="utf-8"?>
<!-- Generator: Adobe Illustrator 19.1.0, SVG Export Plug-In . SVG Version: 6.00 Build 0)  -->
<svg version="1.1" id="Layer_1" xmlns="http://www.w3.org/2000/svg" xmlns:xlink="http://www.w3.org/1999/xlink" x="0px" y="0px"
	 viewBox="0 0 91 79" style="enable-background:new 0 0 91 79;" xml:space="preserve">
<style type="text/css">
	.st0{opacity:0.25;fill:#76767B;}
	.st1{fill:none;stroke:#76767B;}
	.st2{fill:none;stroke:#76767B;stroke-dasharray:1;}
	.st3{fill:#76767B;}
	.st4{fill:#EB3B29;}
</style>
<g id="XMLID_24_">
	<g id="XMLID_59_">
		<polygon class="st0" points="22.7,78.7 0.2,39.7 22.7,0.7 67.7,0.7 90.2,39.7 67.7,78.7 		"/>
		<g>
			<line class="st1" x1="22.7" y1="78.7" x2="22.7" y2="78.7"/>
			<line class="st2" x1="21.7" y1="77" x2="0.7" y2="40.6"/>
			<line class="st1" x1="0.2" y1="39.7" x2="0.2" y2="39.7"/>
			<line class="st2" x1="1.1" y1="38" x2="22.2" y2="1.6"/>
			<line class="st1" x1="22.7" y1="0.7" x2="22.7" y2="0.7"/>
			<line class="st2" x1="24.6" y1="0.7" x2="66.7" y2="0.7"/>
			<line class="st1" x1="67.7" y1="0.7" x2="67.7" y2="0.7"/>
			<line class="st2" x1="68.7" y1="2.4" x2="89.7" y2="38.9"/>
			<line class="st1" x1="90.2" y1="39.7" x2="90.2" y2="39.7"/>
			<line class="st2" x1="89.2" y1="41.4" x2="68.2" y2="77.9"/>
			<line class="st1" x1="67.7" y1="78.7" x2="67.7" y2="78.7"/>
			<line class="st2" x1="65.7" y1="78.7" x2="23.7" y2="78.7"/>
		</g>
	</g>
	<path id="XMLID_254_" class="st3" d="M52.2,49.7c-2,1.4-4.4,2.2-7.1,2.1c-6.4-0.1-11.7-5.3-11.9-11.7c-0.3-6.9,5.3-12.6,12.1-12.6
		c6.7,0,12.1,5.4,12.1,12.1h3c0-8.6-7.2-15.5-15.8-15.1C37,25,30.6,31.3,30.3,39c-0.4,8.7,6.5,15.8,15.1,15.8c3.5,0,6.8-1.2,9.4-3.3
		c0.5-0.4,0.3-1.1-0.2-1.3c-0.5-0.2-1.1-0.4-1.5-0.7C52.7,49.5,52.5,49.6,52.2,49.7z"/>
	<path id="XMLID_227_" class="st4" d="M58.2,33.4c-3.5,0-6.3,2.8-6.3,6.3c0,3.5,2.8,6.3,6.3,6.3c3.5,0,6.3-2.8,6.3-6.3
		C64.4,36.2,61.6,33.4,58.2,33.4L58.2,33.4z"/>
</g>
</svg>
