<?xml version="1.0" encoding="utf-8"?>
<!-- Generator: Adobe Illustrator 19.1.0, SVG Export Plug-In . SVG Version: 6.00 Build 0)  -->
<svg version="1.1" id="Layer_1" xmlns="http://www.w3.org/2000/svg" xmlns:xlink="http://www.w3.org/1999/xlink" x="0px" y="0px"
	 viewBox="0 0 91 79" style="enable-background:new 0 0 91 79;" xml:space="preserve">
<style type="text/css">
	.st0{fill:none;stroke:#77777C;}
	.st1{fill:none;stroke:#77777C;stroke-dasharray:1;}
	.st2{fill:#77777C;}
	.st3{fill:#EA3D29;}
</style>
<g id="XMLID_44_">
	<g id="XMLID_14_">
		<g id="XMLID_147_">
			<line id="XMLID_309_" class="st0" x1="22.9" y1="78.7" x2="22.9" y2="78.7"/>
			<line id="XMLID_303_" class="st1" x1="22" y1="77" x2="0.9" y2="40.5"/>
			<line id="XMLID_167_" class="st0" x1="0.4" y1="39.7" x2="0.4" y2="39.7"/>
			<line id="XMLID_166_" class="st1" x1="1.4" y1="38" x2="22.4" y2="1.6"/>
			<line id="XMLID_165_" class="st0" x1="22.9" y1="0.7" x2="22.9" y2="0.7"/>
			<line id="XMLID_164_" class="st1" x1="24.9" y1="0.7" x2="67" y2="0.7"/>
			<line id="XMLID_163_" class="st0" x1="68" y1="0.7" x2="68" y2="0.7"/>
			<line id="XMLID_162_" class="st1" x1="68.9" y1="2.4" x2="90" y2="38.8"/>
			<line id="XMLID_161_" class="st0" x1="90.5" y1="39.7" x2="90.5" y2="39.7"/>
			<line id="XMLID_160_" class="st1" x1="89.5" y1="41.4" x2="68.4" y2="77.8"/>
			<line id="XMLID_159_" class="st0" x1="68" y1="78.7" x2="68" y2="78.7"/>
			<line id="XMLID_149_" class="st1" x1="66" y1="78.7" x2="23.9" y2="78.7"/>
		</g>
	</g>
	<g id="XMLID_40_">
		<path id="XMLID_16_" class="st2" d="M49.1,15.3c0.3,0.2,0.4,0.4,0.4,0.7c0,1.7,0,3.4,0,5c0,0.3,0,0.3,0.3,0.4
			c1.6,0.3,3.2,0.8,4.6,1.5c0.9,0.4,1.8,0.9,2.6,1.5c0.2,0.1,0.2,0.1,0.4,0c0,0,0,0,0.1-0.1c1.3-1.3,2.6-2.6,3.8-3.8
			c0.3-0.3,0.2-0.3,0.6-0.1c0.3,0.2,0.7,0.3,1,0.5c2,1,3.3,2.6,4,4.7c0,0.1,0,0.2-0.1,0.3c-0.3,0.3-0.6,0.6-0.9,0.8
			c-1.1,1-2.1,2-3.1,3.1c-0.3,0.3-0.3,0.2-0.1,0.5c0,0,0,0.1,0.1,0.1c1.1,1.7,1.9,3.5,2.5,5.4c0.4,1.3,0.7,2.7,0.8,4.1
			c0.1,1.4,0.1,2.8,0,4.2c-0.2,1.6-0.6,3.2-1.1,4.7c-0.8,2.3-2,4.3-3.6,6.2c-2,2.4-4.4,4.2-7.1,5.5c-2.1,1-4.3,1.6-6.6,1.8
			c-0.3,0-0.7,0.1-1,0.1h-2.3c-0.1,0-0.1,0-0.2-0.1c-0.7-0.1-1.4-0.1-2.1-0.2c-1.7-0.3-3.4-0.8-5-1.5c-2.7-1.2-5.1-2.9-7.1-5.2
			c-1.8-2-3.2-4.3-4.1-6.9c-0.6-1.7-1-3.4-1.1-5.1c-0.1-1.5-0.1-2.9,0.1-4.4c0.3-2.1,0.8-4.1,1.7-6c1.5-3.3,3.7-6,6.7-8.1
			c2-1.4,4.1-2.5,6.4-3.1c0.5-0.2,1.1-0.3,1.7-0.4c0.2-0.1,0.2-0.1,0.2-0.3c0-0.1,0-0.1,0-0.2c0-1.6,0-3.3,0-4.9
			c0-0.3,0.2-0.6,0.4-0.7c0.6-0.4,1.8-0.9,3.4-0.9C47.3,14.4,48.5,15,49.1,15.3z M27.7,41.8c0.1,9.9,8,17.8,17.9,17.8
			c10,0,17.9-8.1,17.9-17.8c0-9.9-8.1-17.9-17.9-17.8C35.9,24,27.8,31.8,27.7,41.8z"/>
		<path id="XMLID_20_" class="st3" d="M47.5,36.7l0-6.6c0-0.1,0-0.2,0-0.3c-0.1-0.9-0.6-1.6-1.5-1.8c-0.1,0-0.2,0-0.4,0
			c-0.7,0-1.3,0.4-1.6,1c-0.2,0.4-0.2,0.7-0.2,1.1l0,11.5c0,0.1,0,0.2,0,0.2c0.1,0.8,0.5,1.4,1.2,1.7c0.2,0.1,0.4,0.1,0.6,0.1
			c0.5,0,0.9-0.2,1.3-0.6c0.4-0.4,0.5-0.8,0.5-1.4C47.5,40,47.5,38.4,47.5,36.7z"/>
	</g>
</g>
</svg>
