<?xml version="1.0" encoding="utf-8"?>
<!-- Generator: Adobe Illustrator 19.1.0, SVG Export Plug-In . SVG Version: 6.00 Build 0)  -->
<svg version="1.1" id="Layer_1" xmlns="http://www.w3.org/2000/svg" xmlns:xlink="http://www.w3.org/1999/xlink" x="0px" y="0px"
	 viewBox="0 0 91 79" style="enable-background:new 0 0 91 79;" xml:space="preserve">
<style type="text/css">
	.st0{opacity:0.25;fill:#76767B;}
	.st1{fill:none;stroke:#76767B;}
	.st2{fill:none;stroke:#76767B;stroke-dasharray:1;}
	.st3{fill:#EB3B29;}
	.st4{fill:#76767B;}
</style>
<g id="XMLID_27_">
	<g id="XMLID_54_">
		<polygon class="st0" points="22.6,78.7 0.1,39.7 22.6,0.7 67.6,0.7 90.1,39.7 67.6,78.7 		"/>
		<g>
			<line class="st1" x1="22.6" y1="78.7" x2="22.6" y2="78.7"/>
			<line class="st2" x1="21.6" y1="77" x2="0.6" y2="40.5"/>
			<line class="st1" x1="0.1" y1="39.7" x2="0.1" y2="39.7"/>
			<line class="st2" x1="1.1" y1="38" x2="22.1" y2="1.6"/>
			<line class="st1" x1="22.6" y1="0.7" x2="22.6" y2="0.7"/>
			<line class="st2" x1="24.6" y1="0.7" x2="66.7" y2="0.7"/>
			<line class="st1" x1="67.6" y1="0.7" x2="67.6" y2="0.7"/>
			<line class="st2" x1="68.6" y1="2.4" x2="89.7" y2="38.8"/>
			<line class="st1" x1="90.1" y1="39.7" x2="90.1" y2="39.7"/>
			<line class="st2" x1="89.2" y1="41.4" x2="68.1" y2="77.8"/>
			<line class="st1" x1="67.6" y1="78.7" x2="67.6" y2="78.7"/>
			<line class="st2" x1="65.7" y1="78.7" x2="23.6" y2="78.7"/>
		</g>
	</g>
	<path id="XMLID_48_" class="st3" d="M46.7,45.6l0-4.3h4.4l0.1,0c0.7-0.1,1.2-0.4,1.4-1.1c0.1-0.2,0.1-0.4,0.1-0.5
		c0-0.4-0.2-0.8-0.5-1.1c-0.3-0.3-0.7-0.5-1.2-0.5h-0.6v0.3h0l-0.1-0.3h-3.6l0-4.3c0-0.1,0-0.1,0-0.2c-0.1-0.8-0.6-1.3-1.3-1.5
		c-0.1,0-0.2,0-0.3,0c-0.6,0-1.1,0.3-1.4,0.9c-0.2,0.3-0.2,0.6-0.2,0.9v4.3h-0.3v0.3h0l-0.1-0.3l-3.9,0l-0.1,0
		c-0.8,0.1-1.3,0.6-1.5,1.3c0,0.1,0,0.2,0,0.3c0,0.6,0.3,1.1,0.9,1.4c0.3,0.2,0.6,0.2,0.9,0.2l4.3,0v4.3c0,0.1,0,0.1,0,0.2
		c0.1,0.7,0.4,1.2,1.1,1.4c0.2,0.1,0.4,0.1,0.5,0.1c0.4,0,0.8-0.2,1.1-0.5C46.6,46.5,46.7,46.1,46.7,45.6z"/>
	<path id="XMLID_79_" class="st4" d="M72.8,38.9C69.5,34.5,58,24.8,45.5,24.8l-0.2,0l-0.1,0c-0.4,0-0.8,0-1.3,0.1l-0.4,0
		C33,25.7,23,32.9,17.6,38.8c-0.4,0.5-0.5,1.2-0.1,1.7c0.1,0.1,1.8,2.4,5.5,5.4c0.3,0.3,0.6,0.3,0.9,0.3c0.4,0,0.8-0.2,1.1-0.5
		c0.5-0.6,0.4-1.4-0.2-1.9c-1.4-1.1-2.6-2.2-3.7-3.3l-0.7-0.7l0.7-0.7c1.9-1.9,5.1-4.6,9.1-6.9l2.8-1.6l-1.4,2.9l0.3,0.1v0l-0.3,0
		c-0.2,0.4-0.3,0.7-0.4,1.1l0,0.1C31,34.9,31,35,31,35c-0.1,0.3-0.2,0.7-0.3,1l0,0.2c0,0.1-0.1,0.2-0.1,0.3c-0.1,0.3-0.1,0.6-0.2,1
		l0,0.2c0,0.1,0,0.2-0.1,0.4c0,0.4,0,0.7-0.1,1.1l0,0.2c0,0.1,0,0.2,0,0.3c0,1,0.1,2,0.3,3c1.4,6.8,7.3,11.7,14.2,11.9l0.1,0
		c0.1,0,0.1,0,0.2,0c0,0,0.2,0,0.2,0l0.1,0c12.6,0,24-9.7,27.3-14.1C73.1,40,73.1,39.4,72.8,38.9z M44.9,51.9L44.9,51.9l-0.4,0
		c-0.3,0-0.6,0-1-0.1l-0.3,0c-0.3,0-0.6-0.1-0.9-0.2c-0.1,0-0.2-0.1-0.4-0.1c-0.2-0.1-0.5-0.1-0.7-0.2c-0.2-0.1-0.4-0.1-0.6-0.2
		c-0.2-0.1-0.3-0.1-0.5-0.2c-0.2-0.1-0.5-0.2-0.8-0.4l-0.2-0.1c-0.3-0.2-0.6-0.3-1-0.6c-1.9-1.3-3.4-3.1-4.4-5.4
		c-0.1-0.3-0.2-0.6-0.3-0.8c0,0-0.1-0.3-0.1-0.3c0-0.1-0.1-0.2-0.1-0.3l-0.1-0.4c0-0.1-0.1-0.3-0.1-0.5c-0.2-0.8-0.2-1.6-0.2-2.4
		c0-5.9,4.3-11,10.2-12c0.4-0.1,0.7-0.1,1.1-0.1l0-0.3l0.2,0.3c0.3,0,0.6,0,0.9,0c6.6,0.1,12,5.6,12,12.2c0,1.1-0.2,2.2-0.5,3.3
		l-0.1,0.2c0,0.1-0.1,0.3-0.1,0.4L56.5,44c0,0.1-0.1,0.3-0.2,0.4l-0.1,0.3c-0.1,0.3-0.3,0.6-0.4,0.9c-0.8,1.4-1.7,2.5-3,3.6
		c-0.3,0.2-0.6,0.4-0.9,0.7l-0.2,0.1c-0.3,0.2-0.5,0.3-0.8,0.5l-0.3,0.2c-0.2,0.1-0.4,0.2-0.7,0.3c-0.2,0.1-0.3,0.1-0.5,0.2
		c-0.2,0.1-0.3,0.1-0.5,0.2c-0.2,0.1-0.5,0.1-0.7,0.2c-0.1,0-0.2,0.1-0.4,0.1c-0.3,0.1-0.6,0.1-1,0.2l-0.2,0c-0.3,0-0.6,0.1-1,0.1
		l-0.2,0l-0.2,0c-0.1,0-0.1,0-0.2,0C45,51.8,44.9,51.8,44.9,51.9z M59.8,47.7L57,49.3l1.5-2.9l0-0.1c0.2-0.4,0.4-0.9,0.6-1.3
		l0.1-0.4c0.1-0.4,0.2-0.8,0.4-1.2c0,0,0.1-0.4,0.1-0.5c0.1-0.4,0.2-0.8,0.2-1.2c0,0,0.1-0.3,0.1-0.4c0.1-0.6,0.1-1.1,0.1-1.7
		s0-1.1-0.1-1.7c0-0.1-0.1-0.4-0.1-0.4c-0.1-0.4-0.1-0.8-0.2-1.2c0-0.1-0.1-0.2-0.1-0.3l0-0.1c-0.1-0.4-0.2-0.8-0.3-1.2l-0.1-0.4
		c-0.2-0.4-0.4-0.9-0.6-1.3l0-0.1L57,30.1l2.8,1.6c3.6,2,7.1,4.7,9.5,7.3l0.6,0.7l-0.6,0.7C66.9,43,63.5,45.7,59.8,47.7z"/>
</g>
</svg>
