<?xml version="1.0" encoding="utf-8"?>
<!-- Generator: Adobe Illustrator 19.1.0, SVG Export Plug-In . SVG Version: 6.00 Build 0)  -->
<svg version="1.1" id="Layer_1" xmlns="http://www.w3.org/2000/svg" xmlns:xlink="http://www.w3.org/1999/xlink" x="0px" y="0px"
	 viewBox="0 0 91 79" style="enable-background:new 0 0 91 79;" xml:space="preserve">
<style type="text/css">
	.st0{fill:none;stroke:#77777C;}
	.st1{fill:none;stroke:#77777C;stroke-dasharray:1;}
	.st2{fill:#EA3D29;}
	.st3{fill:#77777C;}
</style>
<g id="XMLID_15_">
	<g id="XMLID_259_">
		<g id="XMLID_153_">
			<line id="XMLID_346_" class="st0" x1="23" y1="78.5" x2="23" y2="78.5"/>
			<line id="XMLID_345_" class="st1" x1="22" y1="76.8" x2="1" y2="40.3"/>
			<line id="XMLID_344_" class="st0" x1="0.5" y1="39.5" x2="0.5" y2="39.5"/>
			<line id="XMLID_343_" class="st1" x1="1.5" y1="37.8" x2="22.5" y2="1.3"/>
			<line id="XMLID_342_" class="st0" x1="23" y1="0.5" x2="23" y2="0.5"/>
			<line id="XMLID_341_" class="st1" x1="25" y1="0.5" x2="67.1" y2="0.5"/>
			<line id="XMLID_340_" class="st0" x1="68" y1="0.5" x2="68" y2="0.5"/>
			<line id="XMLID_339_" class="st1" x1="69" y1="2.2" x2="90.1" y2="38.6"/>
			<line id="XMLID_338_" class="st0" x1="90.5" y1="39.5" x2="90.5" y2="39.5"/>
			<line id="XMLID_324_" class="st1" x1="89.6" y1="41.2" x2="68.5" y2="77.6"/>
			<line id="XMLID_155_" class="st0" x1="68" y1="78.5" x2="68" y2="78.5"/>
			<line id="XMLID_154_" class="st1" x1="66.1" y1="78.5" x2="24" y2="78.5"/>
		</g>
	</g>
	<g id="XMLID_257_">
		<path id="XMLID_301_" class="st2" d="M58.5,41.3H32.6c-0.8,0-1.5-0.7-1.5-1.5V16.8c0-0.8,0.7-1.5,1.5-1.5c0.8,0,1.5,0.7,1.5,1.5
			v21.4H57V16.8c0-0.8,0.7-1.5,1.5-1.5S60,16,60,16.8v22.9C60,40.6,59.3,41.3,58.5,41.3z"/>
	</g>
	<g id="XMLID_43_">
		<g id="XMLID_264_">
			<path id="XMLID_308_" class="st3" d="M40.5,46.8h-7.9c-0.4,0-0.8,0.2-1.1,0.5l-9,9.9c-0.6,0.6-0.5,1.6,0.1,2.1
				c0.6,0.6,1.6,0.5,2.1-0.1l8.5-9.4h7.3c0.8,0,1.5-0.7,1.5-1.5v0C42,47.5,41.3,46.8,40.5,46.8z"/>
			<path id="XMLID_313_" class="st3" d="M68.5,57.2l-8.9-9.9c-0.3-0.3-0.7-0.5-1.1-0.5h-7.9c-0.8,0-1.5,0.7-1.5,1.5v0
				c0,0.8,0.7,1.5,1.5,1.5h7.3l8.5,9.4c0.3,0.3,0.7,0.5,1.1,0.5c0.5,0,0.9-0.2,1.2-0.6C69.1,58.5,69,57.7,68.5,57.2z"/>
		</g>
		<path id="XMLID_299_" class="st2" d="M45.5,53.7c-0.8,0-1.5-0.7-1.5-1.5V40.6c0-0.8,0.7-1.5,1.5-1.5s1.5,0.7,1.5,1.5v11.6
			C47,53.1,46.3,53.7,45.5,53.7z"/>
	</g>
	<g id="XMLID_260_">
		<path id="XMLID_298_" class="st3" d="M35.3,54.7h-6.2c-0.8,0-1.5-0.7-1.5-1.5s0.7-1.5,1.5-1.5h6.2c0.8,0,1.5,0.7,1.5,1.5
			S36.1,54.7,35.3,54.7z"/>
	</g>
	<g id="XMLID_261_">
		<path id="XMLID_297_" class="st3" d="M28.5,59.7h-4.9c-0.8,0-1.5-0.7-1.5-1.5s0.7-1.5,1.5-1.5h4.9c0.8,0,1.5,0.7,1.5,1.5
			S29.3,59.7,28.5,59.7z"/>
	</g>
	<g id="XMLID_263_">
		<path id="XMLID_295_" class="st3" d="M67.4,59.7h-5.2c-0.8,0-1.5-0.7-1.5-1.5s0.7-1.5,1.5-1.5h5.2c0.8,0,1.5,0.7,1.5,1.5
			S68.2,59.7,67.4,59.7z"/>
	</g>
	<g id="XMLID_262_">
		<path id="XMLID_265_" class="st3" d="M62.6,54.7h-6.9c-0.8,0-1.5-0.7-1.5-1.5s0.7-1.5,1.5-1.5h6.9c0.8,0,1.5,0.7,1.5,1.5
			S63.4,54.7,62.6,54.7z"/>
	</g>
</g>
</svg>
