<?xml version="1.0" encoding="utf-8"?>
<!-- Generator: Adobe Illustrator 19.1.0, SVG Export Plug-In . SVG Version: 6.00 Build 0)  -->
<svg version="1.1" id="Layer_1" xmlns="http://www.w3.org/2000/svg" xmlns:xlink="http://www.w3.org/1999/xlink" x="0px" y="0px"
	 viewBox="0 0 91 79" style="enable-background:new 0 0 91 79;" xml:space="preserve">
<style type="text/css">
	.st0{opacity:0.25;fill:#76767B;}
	.st1{fill:none;stroke:#76767B;}
	.st2{fill:none;stroke:#76767B;stroke-dasharray:1;}
	.st3{fill:#76767B;}
	.st4{fill:#E93C29;}
</style>
<g id="XMLID_34_">
	<g id="XMLID_13_">
		<polygon class="st0" points="23,78.5 0.5,39.5 23,0.5 68,0.5 90.5,39.5 68,78.5 		"/>
		<g>
			<line class="st1" x1="23" y1="78.5" x2="23" y2="78.5"/>
			<line class="st2" x1="22" y1="76.8" x2="1" y2="40.3"/>
			<line class="st1" x1="0.5" y1="39.5" x2="0.5" y2="39.5"/>
			<line class="st2" x1="1.5" y1="37.8" x2="22.5" y2="1.3"/>
			<line class="st1" x1="23" y1="0.5" x2="23" y2="0.5"/>
			<line class="st2" x1="25" y1="0.5" x2="67.1" y2="0.5"/>
			<line class="st1" x1="68" y1="0.5" x2="68" y2="0.5"/>
			<line class="st2" x1="69" y1="2.2" x2="90.1" y2="38.6"/>
			<line class="st1" x1="90.5" y1="39.5" x2="90.5" y2="39.5"/>
			<line class="st2" x1="89.6" y1="41.2" x2="68.5" y2="77.6"/>
			<line class="st1" x1="68" y1="78.5" x2="68" y2="78.5"/>
			<line class="st2" x1="66.1" y1="78.5" x2="24" y2="78.5"/>
		</g>
	</g>
	<path id="XMLID_1_" class="st3" d="M34.1,61c-1.5-0.7-2.3-2.4-2-4c0,0,0,0,0,0c0.4-1.8,0.5-3.6,0.4-5.4c-0.2-2.6-0.9-5.1-2.4-7.3
		c-1.1-1.6-2.1-3.2-2.9-4.9c-1.2-2.5-1.8-5.1-1.6-7.9c0.3-3.7,1.5-7.1,3.8-10.1c1.9-2.4,4.3-4,7.2-5c1.8-0.6,3.6-1,5.5-1.1
		c1.4-0.1,2.9-0.2,4.3-0.1c2.3,0.1,4.5,0.4,6.6,1.1c1.9,0.6,3.6,1.5,5.1,2.9c1.6,1.4,2.8,3.2,3.6,5.2c0.9,2.1,1.3,4.3,1.6,6.5
		c0.1,0.9-0.2,1.6-0.4,2.4c-0.1,0.3-0.1,0.5-0.2,0.8c-0.1,0.6,0.1,1.2,0.5,1.7c1.1,1.5,2.2,3,3.2,4.6c0.3,0.4,0.6,0.9,0.4,1.5
		c-0.1,0.3-0.3,0.7-0.6,0.9c-0.5,0.5-1.1,0.7-1.7,0.8c-1.2,0.2-1.4,1.1-1.2,2c0,0,0,0,0,0c0.3,1,0,1.6-1,1.9c-0.1,0-0.1,0.1-0.3,0.1
		c0.1,0.1,0.2,0.1,0.2,0.1c0.7,0.3,0.9,0.7,0.6,1.5c-0.1,0.2-0.2,0.5-0.4,0.7c-0.2,0.2-0.2,0.5-0.2,0.8c0.1,0.6,0.2,1.2,0.3,1.8
		c0.1,1.8-0.6,3.1-2.4,3.5c-0.7,0.2-1.5,0.2-2.3,0.3c-0.9,0.1-1.8,0.2-2.7,0.3c-0.3,0-0.5,0.1-0.8,0.2c-0.8,0.3-1.3,0.9-1.4,1.8
		c-0.1,1.1-0.2,2.2-0.3,3.3C52.6,65.2,38.9,63.3,34.1,61z M27.5,31.6c0,0.3,0,0.8,0.1,1.3c0.2,1.9,0.7,3.7,1.7,5.4
		c0.7,1.2,1.6,2.3,2.8,3.1c1.7,1.1,3.5,1.2,5.4,0.9c2.2-0.4,4.1-1.3,6-2.3c2.4-1.2,4.7-2.5,7.1-3.7c1.6-0.8,3.1-1.7,4.5-2.7
		c1.4-1,2.7-2.1,3.7-3.5c1.2-1.7,1.6-3.6,0.9-5.6c-0.7-2-1.9-3.5-3.6-4.7c-1.8-1.3-3.9-2.1-6.1-2.6c-1.9-0.4-3.8-0.6-5.8-0.5
		c-0.8,0-1.6,0.1-2.4,0.2c-1.9,0.2-3.7,0.7-5.5,1.3c-2.7,1-4.9,2.6-6.4,5C28.3,25.7,27.5,28.5,27.5,31.6z"/>
	<path id="XMLID_4_" class="st4" d="M42.5,28.6c0.4-0.1,0.7-0.1,1.1-0.2c0.2-0.1,0.4,0,0.6,0.2c0.1,0.1,0.2,0.3,0.3,0.4
		c0.3,0.6,0.2,0.8-0.3,1.2c-0.2,0.1-0.4,0.2-0.5,0.4c-0.1,0.1-0.2,0.2-0.2,0.4c-0.1,0.4,0.1,0.6,0.5,0.7c0.2,0.1,0.4,0.2,0.6,0.3
		c0.3,0.1,0.4,0.3,0.3,0.6c0,0.1,0,0.3-0.1,0.4c-0.1,0.7-0.3,0.8-0.9,0.8c-0.2,0-0.3,0-0.5,0c-0.3,0-0.5,0.1-0.7,0.4
		c-0.2,0.2-0.2,0.4,0,0.7c0.1,0.2,0.2,0.4,0.4,0.7c0.2,0.3,0.1,0.5-0.1,0.8c-0.1,0.1-0.2,0.3-0.4,0.4c-0.5,0.3-0.6,0.3-1.1,0
		c-0.1-0.1-0.3-0.2-0.4-0.3c-0.3-0.3-0.5-0.3-0.8-0.1c-0.2,0.1-0.3,0.2-0.3,0.4c0,0.3-0.1,0.6-0.1,0.9c0,0.1,0,0.1,0,0.2
		c-0.2,0.4-0.5,0.4-0.8,0.4c-0.3,0-0.8,0.2-1-0.3c-0.1-0.3-0.2-0.7-0.3-1c-0.1-0.3-0.7-0.5-1-0.2c-0.3,0.2-0.5,0.5-0.7,0.8
		c-0.1,0.2-0.3,0.2-0.5,0.1c-0.2-0.1-0.3-0.1-0.5-0.2c-0.6-0.3-0.7-0.6-0.5-1.2c0-0.1,0.1-0.3,0.1-0.4c0.2-0.3,0.1-0.6-0.2-0.8
		c-0.1-0.1-0.3-0.1-0.4-0.1c-0.3,0-0.7,0.1-1,0.2c-0.2,0-0.3,0-0.5-0.1c-0.3-0.3-0.5-0.7-0.5-1.1c0-0.1,0.1-0.3,0.2-0.3
		c0.3-0.2,0.6-0.4,0.8-0.6c0.3-0.2,0.2-0.8-0.1-1c-0.3-0.2-0.6-0.3-0.9-0.5c-0.1-0.1-0.2-0.3-0.3-0.4c0-0.1,0-0.2,0-0.3
		c0.1-0.8,0.3-1,1.1-1c0.1,0,0.3,0,0.4,0c0.4,0.1,0.6-0.2,0.8-0.5c0-0.1,0-0.3,0-0.4c-0.1-0.3-0.3-0.6-0.5-0.9
		c-0.1-0.2-0.1-0.3,0-0.5c0.1-0.2,0.3-0.3,0.4-0.5c0.5-0.4,0.7-0.4,1.2-0.1c0.1,0.1,0.3,0.2,0.4,0.3c0.3,0.3,0.6,0.2,1,0
		c0.1,0,0.1-0.2,0.2-0.3c0.1-0.3,0.1-0.7,0.2-1c0-0.1,0.1-0.2,0.1-0.3c0.4-0.3,0.9-0.3,1.4-0.1c0.1,0,0.2,0.2,0.2,0.3
		c0.1,0.3,0.2,0.6,0.3,0.9c0.2,0.5,0.7,0.6,1.1,0.3c0.2-0.2,0.4-0.4,0.7-0.7c0.2-0.2,0.4-0.2,0.6-0.1c0.2,0.1,0.3,0.1,0.5,0.2
		c0.5,0.3,0.6,0.5,0.4,1.1c-0.1,0.2-0.1,0.3-0.2,0.5c-0.1,0.4-0.1,0.7,0.3,0.9C42.4,28.6,42.5,28.6,42.5,28.6z M38.4,28.9
		c-1.4-0.1-2.9,1.1-2.9,2.8c0,1.6,1.2,2.8,2.9,2.9c1.5,0,2.8-1.3,2.9-2.8C41.3,30.1,39.8,28.7,38.4,28.9z"/>
	<path id="XMLID_7_" class="st4" d="M47.1,22.6c0-0.2-0.1-0.3-0.1-0.5c0-0.2,0-0.5,0.1-0.6c0.3-0.2,0.6-0.2,1-0.3
		c0.1,0,0.2,0.1,0.2,0.2c0.1,0.2,0.3,0.4,0.4,0.6c0.1,0.2,0.3,0.3,0.6,0.3c0.4,0,0.6-0.1,0.8-0.4c0-0.1,0.1-0.1,0.1-0.2
		c0.2-0.2,0.3-0.4,0.5-0.4c0.3,0,0.6,0.2,1,0.3c0.1,0,0.1,0.2,0.1,0.3c0,0.2,0,0.3-0.1,0.5c-0.1,0.5,0.1,0.8,0.5,1.1
		c0.1,0,0.2,0,0.3,0c0.3-0.1,0.6-0.2,0.8-0.2c0.1,0,0.3,0,0.4,0.1c0.1,0,0.1,0.1,0.2,0.2c0.4,0.5,0.4,0.7-0.1,1.1
		c0,0-0.1,0.1-0.1,0.1c-0.5,0.3-0.4,0.7-0.3,1.1c0,0.1,0.1,0.2,0.2,0.2c0.2,0.1,0.5,0.2,0.7,0.3c0.2,0.1,0.3,0.2,0.3,0.4
		c0,0.1,0,0.1,0,0.2c-0.1,0.7-0.2,0.8-0.9,0.8c-0.6,0-0.8,0.2-1,0.7c0,0.1,0,0.2,0,0.3c0.1,0.2,0.3,0.5,0.3,0.7c0,0.1,0,0.3-0.1,0.4
		c0,0.1-0.1,0.2-0.2,0.2c-0.4,0.4-0.5,0.4-1,0.1c-0.1,0-0.1-0.1-0.2-0.1c-0.4-0.4-0.8-0.3-1.1-0.1c-0.1,0-0.1,0.1-0.2,0.2
		c-0.1,0.2-0.1,0.5-0.2,0.8c0,0.2-0.2,0.4-0.4,0.4c0,0-0.1,0-0.1,0c-0.7,0.1-0.8,0-1-0.7c0,0,0-0.1,0-0.1c0-0.6-0.5-0.6-0.9-0.8
		c-0.1,0-0.2,0-0.2,0.1c-0.2,0.1-0.5,0.3-0.7,0.5c-0.2,0.1-0.3,0.1-0.5,0c-0.1-0.1-0.2-0.1-0.3-0.2c-0.4-0.3-0.5-0.4-0.2-0.9
		c0-0.1,0.1-0.2,0.1-0.2c0.3-0.4,0.1-0.8-0.1-1.1c-0.1-0.1-0.2-0.1-0.3-0.1c-0.3,0-0.5,0-0.8-0.1c-0.1,0-0.3-0.1-0.4-0.3
		c-0.1-0.2-0.1-0.5-0.1-0.8c0-0.1,0.1-0.3,0.2-0.4c0.1-0.1,0.2-0.1,0.3-0.2c0.5-0.1,0.7-0.5,0.7-1c0-0.1-0.1-0.2-0.1-0.3
		c-0.2-0.2-0.4-0.4-0.6-0.6c-0.1-0.1-0.1-0.3-0.1-0.4c0-0.1,0.1-0.2,0.1-0.3c0.3-0.6,0.4-0.6,1-0.4c0.1,0,0.1,0,0.2,0.1
		c0.4,0.1,0.9-0.1,1.1-0.4C47.1,22.8,47.1,22.6,47.1,22.6z M49.3,24c-1.2,0-2.2,1-2.2,2.2c0,1.2,1,2.2,2.2,2.2
		c1.2,0,2.2-0.9,2.2-2.2C51.5,24.9,50.6,24,49.3,24z"/>
	<path id="XMLID_10_" class="st4" d="M43.6,24.3c-0.1,0-0.2-0.1-0.3-0.1c-0.6-0.2-0.8,0-1,0.6c0,0.2-0.1,0.4-0.3,0.4
		c-0.2,0-0.4,0-0.5-0.3c-0.1-0.2-0.2-0.4-0.4-0.5c-0.3-0.2-0.5-0.1-0.7,0.1c-0.2,0.2-0.4,0.2-0.6,0c-0.2-0.1-0.2-0.3-0.1-0.5
		c0.1-0.2,0.2-0.5,0-0.8c-0.2-0.2-0.4-0.2-0.6-0.2c-0.2,0-0.4-0.1-0.4-0.4c0-0.2,0.1-0.4,0.3-0.5c0.2-0.1,0.3-0.2,0.5-0.4
		c0.2-0.3,0-0.5-0.2-0.7c-0.2-0.2-0.2-0.4,0-0.6c0.1-0.1,0.2-0.2,0.4-0.1c0.2,0.1,0.4,0.1,0.6,0.1c0.3-0.1,0.4-0.3,0.4-0.6
		c0-0.3,0.1-0.5,0.5-0.5c0.2,0,0.3,0.1,0.4,0.3c0.1,0.2,0.2,0.4,0.4,0.5c0.3,0.2,0.5,0,0.7-0.2c0.2-0.2,0.4-0.1,0.6,0
		c0.2,0.1,0.2,0.3,0.1,0.5c-0.1,0.2-0.2,0.4,0,0.7c0.2,0.2,0.4,0.3,0.6,0.3c0.3,0,0.3,0.2,0.4,0.4c0,0.2-0.1,0.3-0.2,0.4
		c-0.2,0.1-0.4,0.1-0.5,0.4c-0.1,0.3,0.1,0.5,0.2,0.8c0.1,0.1,0.1,0.3,0,0.4C43.8,24.1,43.7,24.2,43.6,24.3z M40.4,22.3
		c0,0.7,0.5,1.2,1.1,1.2c0.6,0,1.1-0.5,1.1-1.1c0-0.7-0.5-1.2-1.1-1.2C40.9,21.2,40.4,21.7,40.4,22.3z"/>
</g>
</svg>
