<?xml version="1.0" encoding="utf-8"?>
<!-- Generator: Adobe Illustrator 19.1.0, SVG Export Plug-In . SVG Version: 6.00 Build 0)  -->
<svg version="1.1" id="Layer_1" xmlns="http://www.w3.org/2000/svg" xmlns:xlink="http://www.w3.org/1999/xlink" x="0px" y="0px"
	 viewBox="0 0 91 79" style="enable-background:new 0 0 91 79;" xml:space="preserve">
<style type="text/css">
	.st0{fill:#77777C;}
	.st1{fill:none;stroke:#77777C;}
	.st2{fill:none;stroke:#77777C;stroke-dasharray:1;}
	.st3{fill:#EA3D29;}
</style>
<g id="XMLID_34_">
	<path id="XMLID_1_" class="st0" d="M34.4,61.2c-1.5-0.7-2.3-2.4-2-4c0,0,0,0,0,0c0.4-1.8,0.5-3.6,0.4-5.4c-0.2-2.6-0.9-5.1-2.4-7.3
		c-1.1-1.6-2.1-3.2-2.9-4.9c-1.2-2.5-1.8-5.1-1.6-7.9c0.3-3.7,1.5-7.1,3.8-10.1c1.9-2.4,4.3-4,7.2-5c1.8-0.6,3.6-1,5.5-1.1
		c1.4-0.1,2.9-0.2,4.3-0.1c2.3,0.1,4.5,0.4,6.6,1.1c1.9,0.6,3.6,1.5,5.1,2.9c1.6,1.4,2.8,3.2,3.6,5.2c0.9,2.1,1.3,4.3,1.6,6.5
		c0.1,0.9-0.2,1.6-0.4,2.4c-0.1,0.3-0.1,0.5-0.2,0.8c-0.1,0.6,0.1,1.2,0.5,1.7c1.1,1.5,2.2,3,3.2,4.6c0.3,0.4,0.6,0.9,0.4,1.5
		c-0.1,0.3-0.3,0.7-0.6,0.9c-0.5,0.5-1.1,0.7-1.7,0.8c-1.2,0.2-1.4,1.1-1.2,2c0,0,0,0,0,0c0.3,1,0,1.6-1,1.9c-0.1,0-0.1,0.1-0.3,0.1
		c0.1,0.1,0.2,0.1,0.2,0.1c0.7,0.3,0.9,0.7,0.6,1.5c-0.1,0.2-0.2,0.5-0.4,0.7c-0.2,0.2-0.2,0.5-0.2,0.8c0.1,0.6,0.2,1.2,0.3,1.8
		c0.1,1.8-0.6,3.1-2.4,3.5c-0.7,0.2-1.5,0.2-2.3,0.3c-0.9,0.1-1.8,0.2-2.7,0.3c-0.3,0-0.5,0.1-0.8,0.2c-0.8,0.3-1.3,0.9-1.4,1.8
		c-0.1,1.1-0.2,2.2-0.3,3.3C53,65.4,39.2,63.5,34.4,61.2z M27.8,31.8c0,0.3,0,0.8,0.1,1.3c0.2,1.9,0.7,3.7,1.7,5.4
		c0.7,1.2,1.6,2.3,2.8,3.1c1.7,1.1,3.5,1.2,5.4,0.9c2.2-0.4,4.1-1.3,6-2.3c2.4-1.2,4.7-2.5,7.1-3.7c1.6-0.8,3.1-1.7,4.5-2.7
		c1.4-1,2.7-2.1,3.7-3.5c1.2-1.7,1.6-3.6,0.9-5.6c-0.7-2-1.9-3.5-3.6-4.7c-1.8-1.3-3.9-2.1-6.1-2.6c-1.9-0.4-3.8-0.6-5.8-0.5
		c-0.8,0-1.6,0.1-2.4,0.2c-1.9,0.2-3.7,0.7-5.5,1.3c-2.7,1-4.9,2.6-6.4,5C28.7,25.9,27.9,28.7,27.8,31.8z"/>
	<g id="XMLID_13_">
		<g id="XMLID_169_">
			<line id="XMLID_181_" class="st1" x1="23.4" y1="78.7" x2="23.4" y2="78.7"/>
			<line id="XMLID_180_" class="st2" x1="22.4" y1="77" x2="1.3" y2="40.5"/>
			<line id="XMLID_179_" class="st1" x1="0.9" y1="39.7" x2="0.9" y2="39.7"/>
			<line id="XMLID_178_" class="st2" x1="1.8" y1="38" x2="22.9" y2="1.6"/>
			<line id="XMLID_177_" class="st1" x1="23.4" y1="0.7" x2="23.4" y2="0.7"/>
			<line id="XMLID_176_" class="st2" x1="25.3" y1="0.7" x2="67.4" y2="0.7"/>
			<line id="XMLID_175_" class="st1" x1="68.4" y1="0.7" x2="68.4" y2="0.7"/>
			<line id="XMLID_174_" class="st2" x1="69.4" y1="2.4" x2="90.4" y2="38.8"/>
			<line id="XMLID_173_" class="st1" x1="90.9" y1="39.7" x2="90.9" y2="39.7"/>
			<line id="XMLID_172_" class="st2" x1="89.9" y1="41.4" x2="68.9" y2="77.8"/>
			<line id="XMLID_171_" class="st1" x1="68.4" y1="78.7" x2="68.4" y2="78.7"/>
			<line id="XMLID_170_" class="st2" x1="66.4" y1="78.7" x2="24.3" y2="78.7"/>
		</g>
	</g>
	<path id="XMLID_4_" class="st3" d="M42.9,28.8c0.4-0.1,0.7-0.1,1.1-0.2c0.2-0.1,0.4,0,0.6,0.2c0.1,0.1,0.2,0.3,0.3,0.4
		c0.3,0.6,0.2,0.8-0.3,1.2c-0.2,0.1-0.4,0.2-0.5,0.4c-0.1,0.1-0.2,0.2-0.2,0.4c-0.1,0.4,0.1,0.6,0.5,0.7c0.2,0.1,0.4,0.2,0.6,0.3
		c0.3,0.1,0.4,0.3,0.3,0.6c0,0.1,0,0.3-0.1,0.4c-0.1,0.7-0.3,0.8-0.9,0.8c-0.2,0-0.3,0-0.5,0c-0.3,0-0.5,0.1-0.7,0.4
		c-0.2,0.2-0.2,0.4,0,0.7c0.1,0.2,0.2,0.4,0.4,0.7c0.2,0.3,0.1,0.5-0.1,0.8c-0.1,0.1-0.2,0.3-0.4,0.4c-0.5,0.3-0.6,0.3-1.1,0
		c-0.1-0.1-0.3-0.2-0.4-0.3c-0.3-0.3-0.5-0.3-0.8-0.1c-0.2,0.1-0.3,0.2-0.3,0.4c0,0.3-0.1,0.6-0.1,0.9c0,0.1,0,0.1,0,0.2
		c-0.2,0.4-0.5,0.4-0.8,0.4c-0.3,0-0.8,0.2-1-0.3c-0.1-0.3-0.2-0.7-0.3-1c-0.1-0.3-0.7-0.5-1-0.2c-0.3,0.2-0.5,0.5-0.7,0.8
		c-0.1,0.2-0.3,0.2-0.5,0.1c-0.2-0.1-0.3-0.1-0.5-0.2c-0.6-0.3-0.7-0.6-0.5-1.2c0-0.1,0.1-0.3,0.1-0.4c0.2-0.3,0.1-0.6-0.2-0.8
		c-0.1-0.1-0.3-0.1-0.4-0.1c-0.3,0-0.7,0.1-1,0.2c-0.2,0-0.3,0-0.5-0.1c-0.3-0.3-0.5-0.7-0.5-1.1c0-0.1,0.1-0.3,0.2-0.3
		c0.3-0.2,0.6-0.4,0.8-0.6c0.3-0.2,0.2-0.8-0.1-1c-0.3-0.2-0.6-0.3-0.9-0.5c-0.1-0.1-0.2-0.3-0.3-0.4c0-0.1,0-0.2,0-0.3
		c0.1-0.8,0.3-1,1.1-1c0.1,0,0.3,0,0.4,0c0.4,0.1,0.6-0.2,0.8-0.5c0-0.1,0-0.3,0-0.4c-0.1-0.3-0.3-0.6-0.5-0.9
		c-0.1-0.2-0.1-0.3,0-0.5c0.1-0.2,0.3-0.3,0.4-0.5c0.5-0.4,0.7-0.4,1.2-0.1c0.1,0.1,0.3,0.2,0.4,0.3c0.3,0.3,0.6,0.2,1,0
		c0.1,0,0.1-0.2,0.2-0.3c0.1-0.3,0.1-0.7,0.2-1c0-0.1,0.1-0.2,0.1-0.3c0.4-0.3,0.9-0.3,1.4-0.1c0.1,0,0.2,0.2,0.2,0.3
		c0.1,0.3,0.2,0.6,0.3,0.9c0.2,0.5,0.7,0.6,1.1,0.3c0.2-0.2,0.4-0.4,0.7-0.7c0.2-0.2,0.4-0.2,0.6-0.1c0.2,0.1,0.3,0.1,0.5,0.2
		c0.5,0.3,0.6,0.5,0.4,1.1c-0.1,0.2-0.1,0.3-0.2,0.5c-0.1,0.4-0.1,0.7,0.3,0.9C42.7,28.8,42.8,28.8,42.9,28.8z M38.7,29.1
		c-1.4-0.1-2.9,1.1-2.9,2.8c0,1.6,1.2,2.8,2.9,2.9c1.5,0,2.8-1.3,2.9-2.8C41.6,30.3,40.2,29,38.7,29.1z"/>
	<path id="XMLID_7_" class="st3" d="M47.4,22.8c0-0.2-0.1-0.3-0.1-0.5c0-0.2,0-0.5,0.1-0.6c0.3-0.2,0.6-0.2,1-0.3
		c0.1,0,0.2,0.1,0.2,0.2c0.1,0.2,0.3,0.4,0.4,0.6c0.1,0.2,0.3,0.3,0.6,0.3c0.4,0,0.6-0.1,0.8-0.4c0-0.1,0.1-0.1,0.1-0.2
		c0.2-0.2,0.3-0.4,0.5-0.4c0.3,0,0.6,0.2,1,0.3c0.1,0,0.1,0.2,0.1,0.3c0,0.2,0,0.3-0.1,0.5c-0.1,0.5,0.1,0.8,0.5,1.1
		c0.1,0,0.2,0,0.3,0c0.3-0.1,0.6-0.2,0.8-0.2c0.1,0,0.3,0,0.4,0.1c0.1,0,0.1,0.1,0.2,0.2c0.4,0.5,0.4,0.7-0.1,1.1
		c0,0-0.1,0.1-0.1,0.1c-0.5,0.3-0.4,0.7-0.3,1.1c0,0.1,0.1,0.2,0.2,0.2c0.2,0.1,0.5,0.2,0.7,0.3c0.2,0.1,0.3,0.2,0.3,0.4
		c0,0.1,0,0.1,0,0.2c-0.1,0.7-0.2,0.8-0.9,0.8c-0.6,0-0.8,0.2-1,0.7c0,0.1,0,0.2,0,0.3c0.1,0.2,0.3,0.5,0.3,0.7c0,0.1,0,0.3-0.1,0.4
		c0,0.1-0.1,0.2-0.2,0.2c-0.4,0.4-0.5,0.4-1,0.1c-0.1,0-0.1-0.1-0.2-0.1c-0.4-0.4-0.8-0.3-1.1-0.1c-0.1,0-0.1,0.1-0.2,0.2
		c-0.1,0.2-0.1,0.5-0.2,0.8c0,0.2-0.2,0.4-0.4,0.4c0,0-0.1,0-0.1,0c-0.7,0.1-0.8,0-1-0.7c0,0,0-0.1,0-0.1c0-0.6-0.5-0.6-0.9-0.8
		c-0.1,0-0.2,0-0.2,0.1c-0.2,0.1-0.5,0.3-0.7,0.5c-0.2,0.1-0.3,0.1-0.5,0c-0.1-0.1-0.2-0.1-0.3-0.2c-0.4-0.3-0.5-0.4-0.2-0.9
		c0-0.1,0.1-0.2,0.1-0.2c0.3-0.4,0.1-0.8-0.1-1.1C46,28.1,45.9,28,45.8,28c-0.3,0-0.5,0-0.8-0.1c-0.1,0-0.3-0.1-0.4-0.3
		c-0.1-0.2-0.1-0.5-0.1-0.8c0-0.1,0.1-0.3,0.2-0.4c0.1-0.1,0.2-0.1,0.3-0.2c0.5-0.1,0.7-0.5,0.7-1c0-0.1-0.1-0.2-0.1-0.3
		c-0.2-0.2-0.4-0.4-0.6-0.6C45,24.4,45,24.3,45,24.1c0-0.1,0.1-0.2,0.1-0.3c0.3-0.6,0.4-0.6,1-0.4c0.1,0,0.1,0,0.2,0.1
		c0.4,0.1,0.9-0.1,1.1-0.4C47.4,23,47.4,22.8,47.4,22.8z M49.7,24.2c-1.2,0-2.2,1-2.2,2.2c0,1.2,1,2.2,2.2,2.2
		c1.2,0,2.2-0.9,2.2-2.2C51.9,25.2,50.9,24.2,49.7,24.2z"/>
	<path id="XMLID_10_" class="st3" d="M43.9,24.5c-0.1,0-0.2-0.1-0.3-0.1c-0.6-0.2-0.8,0-1,0.6c0,0.2-0.1,0.4-0.3,0.4
		c-0.2,0-0.4,0-0.5-0.3c-0.1-0.2-0.2-0.4-0.4-0.5c-0.3-0.2-0.5-0.1-0.7,0.1c-0.2,0.2-0.4,0.2-0.6,0c-0.2-0.1-0.2-0.3-0.1-0.5
		c0.1-0.2,0.2-0.5,0-0.8c-0.2-0.2-0.4-0.2-0.6-0.2c-0.2,0-0.4-0.1-0.4-0.4c0-0.2,0.1-0.4,0.3-0.5c0.2-0.1,0.3-0.2,0.5-0.4
		c0.2-0.3,0-0.5-0.2-0.7c-0.2-0.2-0.2-0.4,0-0.6c0.1-0.1,0.2-0.2,0.4-0.1c0.2,0.1,0.4,0.1,0.6,0.1c0.3-0.1,0.4-0.3,0.4-0.6
		c0-0.3,0.1-0.5,0.5-0.5c0.2,0,0.3,0.1,0.4,0.3c0.1,0.2,0.2,0.4,0.4,0.5c0.3,0.2,0.5,0,0.7-0.2c0.2-0.2,0.4-0.1,0.6,0
		c0.2,0.1,0.2,0.3,0.1,0.5c-0.1,0.2-0.2,0.4,0,0.7c0.2,0.2,0.4,0.3,0.6,0.3c0.3,0,0.3,0.2,0.4,0.4c0,0.2-0.1,0.3-0.2,0.4
		c-0.2,0.1-0.4,0.1-0.5,0.4c-0.1,0.3,0.1,0.5,0.2,0.8c0.1,0.1,0.1,0.3,0,0.4C44.2,24.3,44,24.4,43.9,24.5z M40.7,22.5
		c0,0.7,0.5,1.2,1.1,1.2c0.6,0,1.1-0.5,1.1-1.1c0-0.7-0.5-1.2-1.1-1.2C41.2,21.4,40.8,21.9,40.7,22.5z"/>
</g>
</svg>
