<?xml version="1.0" encoding="utf-8"?>
<!-- Generator: Adobe Illustrator 19.1.0, SVG Export Plug-In . SVG Version: 6.00 Build 0)  -->
<svg version="1.1" id="logos" xmlns="http://www.w3.org/2000/svg" xmlns:xlink="http://www.w3.org/1999/xlink" x="0px" y="0px"
	 viewBox="0 0 196.7 19.7" style="enable-background:new 0 0 196.7 19.7;" xml:space="preserve">
<style type="text/css">
	.st0{fill:#FFFFFF;}
	.st1{fill:#EC3929;}
</style>
<path class="st0" d="M53.6,4.9C52.7,0.2,40-1.4,25.3,1.3C10.5,4.1-0.8,10.1,0,14.8c0.6,3.4,7.4,5.2,16.6,4.9c0,0-0.1,0-0.1,0
	c-4.7-0.6-8-2.2-8.5-4.7c-0.8-4.3,6.8-9.4,17.1-11.5c10.3-2,19.4-0.2,20.2,4.1c0.6,3-2.9,6.3-8.5,8.8C47.3,13.2,54.3,8.6,53.6,4.9"
	/>
<path class="st1" d="M45.4,7.5c-0.8-4.3-9.9-6.1-20.2-4.1c-10.3,2-18,7.2-17.1,11.5c0.5,2.5,3.8,4.2,8.5,4.7
	c-1.7-0.5-2.8-1.4-3.2-2.6c-1-3.5,5-8.4,13.6-11c8.6-2.6,16.4-1.9,17.4,1.6c0.4,1.5-0.4,3.2-2.2,4.9c-0.8,0.7-3.2,2.6-5.3,0.4
	c-0.4-0.4-0.9-0.7-1.6-0.7c-1.2,0-2.2,1-2.2,2.2c0,1.2,1,2.2,2.2,2.2c0.2,0,0.3,0,0.5-0.1c0.3,0,1-0.3,1-0.3
	C42.5,13.8,46,10.5,45.4,7.5"/>
<circle class="st1" cx="116.7" cy="11.8" r="2"/>
<path class="st0" d="M75.3,8.3c-0.7-0.4-1.3-0.7-2-0.8c-0.7-0.2-1.5-0.3-2.4-0.3c-0.7,0-1.3,0.1-1.8,0.2c-0.5,0.1-0.9,0.3-1.1,0.4
	c-0.3,0.2-0.5,0.4-0.6,0.6c-0.1,0.2-0.2,0.5-0.2,0.8c0,0.6,0.2,1,0.6,1.2c0.4,0.2,1,0.4,1.7,0.5l3.5,0.4c1.1,0.1,1.9,0.4,2.5,0.9
	c0.6,0.5,0.9,1.2,0.9,2c0,0.6-0.1,1.1-0.4,1.5c-0.3,0.4-0.6,0.7-1.1,1c-0.5,0.3-1,0.5-1.7,0.6c-0.7,0.1-1.4,0.2-2.2,0.2
	c-1.1,0-2-0.1-2.8-0.3c-0.8-0.2-1.6-0.6-2.4-1.1l0.6-0.9c0.4,0.3,0.8,0.5,1.1,0.6c0.4,0.2,0.8,0.3,1.2,0.4c0.4,0.1,0.8,0.2,1.2,0.2
	c0.4,0,0.9,0.1,1.5,0.1c1.2,0,2.2-0.2,2.9-0.6c0.7-0.4,1-0.9,1-1.7c0-0.6-0.2-1.1-0.7-1.4c-0.4-0.3-1.1-0.5-1.9-0.6l-3.4-0.4
	c-1-0.1-1.8-0.4-2.4-0.8c-0.6-0.4-0.9-1-0.9-1.9c0-0.5,0.1-1,0.4-1.3c0.3-0.4,0.6-0.7,1-0.9c0.4-0.2,1-0.4,1.5-0.5
	c0.6-0.1,1.2-0.2,1.9-0.2c0.5,0,0.9,0,1.3,0c0.4,0,0.8,0.1,1.2,0.2c0.4,0.1,0.8,0.2,1.2,0.4C75,7,75.4,7.2,75.8,7.5L75.3,8.3z"/>
<path class="st0" d="M80.8,6.4l4.4,6.8h0.4l4.3-6.8h1.3l-5.3,8.1v2.7h-1.1v-2.7l-5.3-8.1H80.8z"/>
<path class="st0" d="M96.7,6.4l8.5,9.5V6.4h1.1v10.8h-1.4l-8.5-9.6v9.6h-1.1V6.4H96.7z"/>
<path class="st0" d="M120.8,9.1c-0.5-0.6-1-1.1-1.8-1.4c-0.7-0.3-1.6-0.5-2.5-0.5c-0.7,0-1.4,0.1-2,0.3c-0.6,0.2-1.1,0.5-1.5,0.9
	c-0.4,0.4-0.7,0.9-1,1.5c-0.2,0.6-0.3,1.2-0.3,1.9c0,0.7,0.1,1.3,0.3,1.9c0.2,0.6,0.6,1.1,1,1.5c0.4,0.4,0.9,0.7,1.5,1
	c0.6,0.2,1.2,0.4,1.9,0.4c1,0,1.8-0.2,2.5-0.5s1.3-0.8,1.8-1.4l0.9,0.6c-0.6,0.7-1.3,1.3-2.1,1.7c-0.8,0.4-1.8,0.6-3,0.6
	c-0.9,0-1.7-0.1-2.4-0.4c-0.7-0.3-1.4-0.6-1.9-1.1c-0.5-0.5-0.9-1.1-1.2-1.8c-0.3-0.7-0.4-1.5-0.4-2.4c0-0.9,0.1-1.7,0.4-2.4
	c0.3-0.7,0.7-1.3,1.2-1.8c0.5-0.5,1.2-0.9,1.9-1.1c0.7-0.3,1.5-0.4,2.4-0.4c1.1,0,2.1,0.2,3,0.6c0.9,0.4,1.6,1,2.1,1.7L120.8,9.1z"
	/>
<path class="st1" d="M136.6,6.4v2.2h-4.4v8.6h-2.4V8.6h-4.4V6.4H136.6z"/>
<path class="st1" d="M143,6.4v4.1h6.1V6.4h2.4v10.8h-2.4v-4.5H143v4.5h-2.4V6.4H143z"/>
<path class="st1" d="M158.4,6.4v10.8h-2.4V6.4H158.4z"/>
<path class="st1" d="M165.2,6.4l6.5,7.3V6.4h2.4v10.8h-2.3l-6.5-7.3v7.3h-2.4V6.4H165.2z"/>
<path class="st1" d="M180.9,6.4v4h3.1l2.7-4h2.8l-3.5,5l3.7,5.8h-2.9l-2.8-4.6h-3.2v4.6h-2.4V6.4H180.9z"/>
<path class="st0" d="M194.3,2.8c1.4,0,2.4,1.1,2.4,2.4c0,1.4-1.1,2.4-2.4,2.4c-1.4,0-2.4-1.1-2.4-2.4C191.9,3.9,192.9,2.8,194.3,2.8
	L194.3,2.8z M194.3,3c-1.2,0-2.1,1-2.1,2.2c0,1.2,0.9,2.2,2.1,2.2c1.2,0,2.1-0.9,2.1-2.2C196.4,4,195.5,3,194.3,3L194.3,3z
	 M194.4,3.8c0.3,0,1,0.1,1,0.8c0,0.3-0.1,0.5-0.5,0.7c0.3,0.1,0.4,0.3,0.5,0.6c0,0.5,0,0.6,0.1,0.7h-0.3c0-0.1-0.1-0.3-0.1-0.6
	c0-0.3-0.1-0.6-0.7-0.6h-0.7v1.2h-0.3V3.8H194.4z M193.6,4.1v1.1h0.7c0.2,0,0.8,0,0.8-0.5c0-0.5-0.5-0.5-0.7-0.5H193.6z"/>
</svg>
