<?xml version="1.0" encoding="utf-8"?>
<!-- Generator: Adobe Illustrator 19.1.0, SVG Export Plug-In . SVG Version: 6.00 Build 0)  -->
<svg version="1.1" id="Layer_1" xmlns="http://www.w3.org/2000/svg" xmlns:xlink="http://www.w3.org/1999/xlink" x="0px" y="0px"
	 viewBox="0 0 91 79" style="enable-background:new 0 0 91 79;" xml:space="preserve">
<style type="text/css">
	.st0{fill:none;stroke:#77777C;}
	.st1{fill:none;stroke:#77777C;stroke-dasharray:1;}
	.st2{fill:#77777C;}
	.st3{fill:#EA3D29;}
</style>
<g id="XMLID_49_">
	<g id="XMLID_19_">
		<g id="XMLID_158_">
			<line id="XMLID_325_" class="st0" x1="23" y1="78.5" x2="23" y2="78.5"/>
			<line id="XMLID_323_" class="st1" x1="22" y1="76.8" x2="1" y2="40.3"/>
			<line id="XMLID_321_" class="st0" x1="0.5" y1="39.5" x2="0.5" y2="39.5"/>
			<line id="XMLID_314_" class="st1" x1="1.5" y1="37.8" x2="22.5" y2="1.3"/>
			<line id="XMLID_312_" class="st0" x1="23" y1="0.5" x2="23" y2="0.5"/>
			<line id="XMLID_311_" class="st1" x1="25" y1="0.5" x2="67.1" y2="0.5"/>
			<line id="XMLID_310_" class="st0" x1="68" y1="0.5" x2="68" y2="0.5"/>
			<line id="XMLID_307_" class="st1" x1="69" y1="2.2" x2="90.1" y2="38.6"/>
			<line id="XMLID_306_" class="st0" x1="90.5" y1="39.5" x2="90.5" y2="39.5"/>
			<line id="XMLID_305_" class="st1" x1="89.6" y1="41.2" x2="68.5" y2="77.6"/>
			<line id="XMLID_304_" class="st0" x1="68" y1="78.5" x2="68" y2="78.5"/>
			<line id="XMLID_296_" class="st1" x1="66.1" y1="78.5" x2="24" y2="78.5"/>
		</g>
	</g>
	<g id="XMLID_41_">
		<path id="XMLID_33_" class="st2" d="M58.5,14.2H33.8c-1.7,0-3,1.3-3,3v42.9c0,1.7,1.3,3,3,3h24.6c1.7,0,3-1.3,3-3V17.2
			C61.5,15.6,60.1,14.2,58.5,14.2z M58.5,17.2v31.2H33.8V17.2H58.5z M33.8,60.1v-8.7h24.6v8.7H33.8z"/>
		<circle id="XMLID_30_" class="st3" cx="46.1" cy="55.7" r="2.1"/>
	</g>
</g>
</svg>
