<?xml version="1.0" encoding="utf-8"?>
<!-- Generator: Adobe Illustrator 19.1.0, SVG Export Plug-In . SVG Version: 6.00 Build 0)  -->
<svg version="1.1" id="Layer_1" xmlns="http://www.w3.org/2000/svg" xmlns:xlink="http://www.w3.org/1999/xlink" x="0px" y="0px"
	 viewBox="0 0 91 79" style="enable-background:new 0 0 91 79;" xml:space="preserve">
<style type="text/css">
	.st0{fill:none;stroke:#77777C;}
	.st1{fill:none;stroke:#77777C;stroke-dasharray:1;}
	.st2{fill:#EA3D29;}
	.st3{fill:#77777C;}
</style>
<g id="XMLID_29_">
	<g id="XMLID_71_">
		<g id="XMLID_120_">
			<line id="XMLID_148_" class="st0" x1="24" y1="78.7" x2="24" y2="78.7"/>
			<line id="XMLID_146_" class="st1" x1="23.1" y1="77" x2="2" y2="40.5"/>
			<line id="XMLID_145_" class="st0" x1="1.5" y1="39.7" x2="1.5" y2="39.7"/>
			<line id="XMLID_143_" class="st1" x1="2.5" y1="38" x2="23.6" y2="1.6"/>
			<line id="XMLID_142_" class="st0" x1="24" y1="0.7" x2="24" y2="0.7"/>
			<line id="XMLID_141_" class="st1" x1="26" y1="0.7" x2="68.1" y2="0.7"/>
			<line id="XMLID_140_" class="st0" x1="69.1" y1="0.7" x2="69.1" y2="0.7"/>
			<line id="XMLID_125_" class="st1" x1="70" y1="2.4" x2="91.1" y2="38.8"/>
			<line id="XMLID_124_" class="st0" x1="91.6" y1="39.7" x2="91.6" y2="39.7"/>
			<line id="XMLID_123_" class="st1" x1="90.6" y1="41.4" x2="69.6" y2="77.8"/>
			<line id="XMLID_122_" class="st0" x1="69.1" y1="78.7" x2="69.1" y2="78.7"/>
			<line id="XMLID_121_" class="st1" x1="67.1" y1="78.7" x2="25" y2="78.7"/>
		</g>
	</g>
	<path id="XMLID_46_" class="st2" d="M56.6,38.4c-0.4-0.4-0.8-0.5-1.4-0.5c-1.6,0-0.3,0-1.9,0l-4.6,0c0,0,0,0,0,0c0-1.5,0-0.2,0-1.9
		l0-4.6c0-0.1,0-0.2,0-0.3c-0.1-0.9-0.6-1.6-1.5-1.8c-0.1,0-0.2,0-0.4,0c-0.7,0-1.3,0.4-1.6,1c-0.2,0.4-0.2,0.7-0.2,1.1l0,6.5
		c-1.5,0-0.2,0-1.8,0l-4.6,0c-0.1,0-0.2,0-0.3,0c-0.9,0.1-1.6,0.6-1.8,1.5c0,0.1,0,0.2,0,0.4c0,0.7,0.4,1.3,1,1.6
		c0.4,0.2,0.7,0.2,1.1,0.2l6.5,0l0,6.5c0,0.1,0,0.2,0,0.2c0.1,0.8,0.5,1.4,1.2,1.7c0.2,0.1,0.4,0.1,0.6,0.1c0.5,0,0.9-0.2,1.3-0.6
		c0.4-0.4,0.5-0.8,0.5-1.4c0-1.6,0-0.3,0-1.9l0-4.6c0,0,0,0,0,0l6.5,0c0.1,0,0.2,0,0.2,0c0.8-0.1,1.4-0.5,1.7-1.2
		c0.1-0.2,0.1-0.4,0.1-0.6C57.2,39.2,57,38.8,56.6,38.4z"/>
	<g id="XMLID_23_">
		<path class="st3" d="M46.7,21.9c9.8,0,17.7,8,17.7,17.7c0,9.8-8,17.7-17.7,17.7S29,49.5,29,39.7C29,29.9,36.9,21.9,46.7,21.9
			 M46.7,18.9C35.3,18.9,26,28.2,26,39.7c0,11.5,9.3,20.7,20.7,20.7c11.5,0,20.7-9.3,20.7-20.7C67.5,28.2,58.2,18.9,46.7,18.9
			L46.7,18.9z"/>
	</g>
</g>
</svg>
