<?xml version="1.0" encoding="utf-8"?>
<!-- Generator: Adobe Illustrator 19.1.0, SVG Export Plug-In . SVG Version: 6.00 Build 0)  -->
<svg version="1.1" id="Layer_1" xmlns="http://www.w3.org/2000/svg" xmlns:xlink="http://www.w3.org/1999/xlink" x="0px" y="0px"
	 viewBox="0 0 91 79" style="enable-background:new 0 0 91 79;" xml:space="preserve">
<style type="text/css">
	.st0{fill:none;stroke:#77777C;}
	.st1{fill:none;stroke:#77777C;stroke-dasharray:1;}
	.st2{fill:#77777C;}
	.st3{fill:none;stroke:#77777C;stroke-width:3;stroke-miterlimit:10;}
	.st4{fill:#EA3D29;}
</style>
<g id="XMLID_32_">
	<g id="XMLID_241_">
		<g id="XMLID_316_">
			<line id="XMLID_337_" class="st0" x1="22.7" y1="79.3" x2="22.7" y2="79.3"/>
			<line id="XMLID_336_" class="st1" x1="21.7" y1="77.6" x2="0.7" y2="41.2"/>
			<line id="XMLID_335_" class="st0" x1="0.2" y1="40.3" x2="0.2" y2="40.3"/>
			<line id="XMLID_334_" class="st1" x1="1.1" y1="38.6" x2="22.2" y2="2.2"/>
			<line id="XMLID_333_" class="st0" x1="22.7" y1="1.3" x2="22.7" y2="1.3"/>
			<line id="XMLID_332_" class="st1" x1="24.6" y1="1.3" x2="66.7" y2="1.3"/>
			<line id="XMLID_331_" class="st0" x1="67.7" y1="1.3" x2="67.7" y2="1.3"/>
			<line id="XMLID_322_" class="st1" x1="68.7" y1="3" x2="89.7" y2="39.5"/>
			<line id="XMLID_320_" class="st0" x1="90.2" y1="40.3" x2="90.2" y2="40.3"/>
			<line id="XMLID_319_" class="st1" x1="89.2" y1="42" x2="68.2" y2="78.4"/>
			<line id="XMLID_318_" class="st0" x1="67.7" y1="79.3" x2="67.7" y2="79.3"/>
			<line id="XMLID_317_" class="st1" x1="65.7" y1="79.3" x2="23.7" y2="79.3"/>
		</g>
	</g>
	<path id="XMLID_247_" class="st2" d="M33.4,44.3l1.2-1.9c0.1-0.2,0.1-0.4,0-0.5l-5.2-7.7c-0.3-0.4-0.8-0.4-1.1,0L17.4,50.1
		c-0.2,0.3,0,0.8,0.4,0.8h2.4c0.2,0,0.3-0.1,0.4-0.2l7.7-11.3c0.2-0.3,0.6-0.3,0.8,0l3.4,5C32.8,44.6,33.2,44.6,33.4,44.3z"/>
	<path id="XMLID_243_" class="st2" d="M52,18.3L32.1,50.1c-0.2,0.3,0,0.7,0.4,0.7h2.4c0.2,0,0.3-0.1,0.4-0.2l17-27.2
		c0.1-0.2,0.3-0.2,0.4,0l17.1,27.2c0.1,0.1,0.2,0.2,0.4,0.2h2.4c0.4,0,0.6-0.4,0.4-0.7L53.2,18.3C52.9,17.9,52.2,17.9,52,18.3z"/>
	<path id="XMLID_242_" class="st3" d="M44,31.8L44,31.8c5.2,3.2,11.9,3.2,17.1,0l0,0"/>
	<g id="XMLID_238_">
		<path id="XMLID_239_" class="st2" d="M77,51.4H14.1c-0.6,0-1.1-0.5-1.1-1.1v-0.8c0-0.6,0.5-1.1,1.1-1.1H77c0.6,0,1.1,0.5,1.1,1.1
			v0.8C78.1,50.9,77.6,51.4,77,51.4z"/>
	</g>
	<path id="XMLID_237_" class="st4" d="M46.5,21c-1.9-1.1-4.1-1.7-6.3-1.7c-6.5,0-11.9,4.9-12.8,11.2c0,0.3,0.2,0.6,0.6,0.6h1.8
		c0.3,0,0.5-0.2,0.5-0.5c0.8-4.8,4.9-8.4,9.9-8.4c1.7,0,3.4,0.4,4.9,1.2c0.3,0.2,0.6,0.1,0.8-0.2l0.9-1.4
		C46.9,21.6,46.8,21.2,46.5,21z"/>
</g>
</svg>
